<svg xmlns="http://www.w3.org/2000/svg" xmlns:xlink="http://www.w3.org/1999/xlink" width="234.769" height="42" viewBox="0 0 234.769 42">
  <defs>
    <linearGradient id="linear-gradient" x1="0.245" y1="0.918" x2="0.624" y2="-0.086" gradientUnits="objectBoundingBox">
      <stop offset="0"/>
      <stop offset="1" stop-color="#e9963e"/>
    </linearGradient>
  </defs>
  <g id="Group_9" data-name="Group 9" transform="translate(-676.961 -478.719)">
    <g id="Group_6" data-name="Group 6" transform="translate(688.541 478.719)">
      <path id="Path_1" data-name="Path 1" d="M707.882,478.719s1.779,2.127,8.584,2.993,10.6-1.575,10.6-1.575,1.47,15.357-3.093,26.147c-4.074,9.633-14,13.679-16.086,14.435-2.083-.756-12.014-4.8-16.087-14.435-4.563-10.79-3.093-26.147-3.093-26.147s3.789,2.441,10.6,1.575S707.882,478.719,707.882,478.719Z" transform="translate(-688.476 -478.719)" fill="url(#linear-gradient)"/>
      <g id="Group_5" data-name="Group 5" transform="translate(2.908 4.865)">
        <g id="Group_2" data-name="Group 2" transform="translate(17.14)">
          <g id="Group_1" data-name="Group 1">
            <path id="Path_2" data-name="Path 2" d="M721.587,500.817c.062.061.124.125.185.187q-.092.213-.185.422c-.089.2-.178.394-.271.589q-.437.928-.934,1.82-.261.471-.537.93c-.353.584-.722,1.156-1.112,1.714l-.082.12q-.279.4-.572.785-.527.7-1.091,1.37c-.031-.03-.061-.061-.093-.094q-.97-.962-1.844-2.019l-.061-.074c.051-.062.1-.125.152-.188q.819-1.015,1.542-2.1c.075-.113.15-.227.223-.342q.693-1.078,1.286-2.222a16.155,16.155,0,0,0-1.973-1.355l-.086-.05q-.2-.118-.4-.241l-.008.016a24.866,24.866,0,0,1-1.462,2.527,16.058,16.058,0,0,1-2.35-1.774,21.518,21.518,0,0,0,1.1-1.9q.192-.374.37-.755.445-.953.8-1.953a18.848,18.848,0,0,1,2.707,1.151q.391.2.771.424.5.293.989.614.4.264.782.549A19.323,19.323,0,0,1,721.587,500.817Z" transform="translate(-708.392 -483.485)" fill="#fff"/>
            <path id="Path_3" data-name="Path 3" d="M724.267,488.953q0,1.318-.111,2.612-.068.824-.18,1.633-.116.854-.282,1.69-.134.7-.3,1.382c-.146.605-.312,1.2-.494,1.8q-.625-.567-1.291-1.083-.587-.455-1.2-.872c.019-.065.035-.131.052-.2a27.786,27.786,0,0,0,.579-2.884c0-.011,0-.023.005-.035a27.928,27.928,0,0,0,.278-3.185,27.508,27.508,0,0,0-2.646-1.249l-.249-.1-.033-.013a27.732,27.732,0,0,0-2.788-.935c-.064-.019-.129-.036-.194-.054l-.4-.1q-1.121-.285-2.277-.479c-.111-.018-.22-.036-.33-.052q-.523-.082-1.054-.142v8.875l-.008.02.008,0v14.762q.836-.7,1.613-1.464c.017-.015.033-.031.05-.047l.143.169q.4.471.825.925.5.543,1.03,1.058c-.087.085-.175.171-.263.255q-.516.5-1.057.966-.638.558-1.309,1.082-.507.394-1.031.769c-.1.071-.2.142-.3.212q-1.082.756-2.232,1.418h0a1.48,1.48,0,0,1-.4.148v-2.876a1.476,1.476,0,0,1,.4.147h0q-.2-.116-.4-.238v-29.3l.25,0q1.021.018,2.024.1c.221.018.443.038.662.061.155.015.308.033.462.051q.982.118,1.943.3c.408.074.813.159,1.215.249l.041.01q.884.2,1.746.454.688.2,1.36.429.81.276,1.6.6.765.309,1.509.661c.13.06.258.122.387.185q1,.484,1.952,1.039v0A1.473,1.473,0,0,1,724.267,488.953Z" transform="translate(-708.412 -483.557)" fill="#fff"/>
          </g>
        </g>
        <g id="Group_4" data-name="Group 4">
          <g id="Group_3" data-name="Group 3">
            <path id="Path_4" data-name="Path 4" d="M694.013,500.817l-.184.187q.091.213.184.422.133.3.272.589.436.928.933,1.82.261.471.538.93.528.876,1.111,1.714l.083.12q.279.4.571.785.526.7,1.091,1.37.047-.045.094-.094.968-.962,1.843-2.019l.061-.074c-.051-.062-.1-.125-.152-.188q-.819-1.015-1.541-2.1c-.076-.113-.151-.227-.224-.342-.461-.719-.891-1.459-1.285-2.222a16.223,16.223,0,0,1,1.972-1.355l.086-.05q.2-.118.4-.241l.008.016a24.68,24.68,0,0,0,1.463,2.527,16.1,16.1,0,0,0,2.349-1.774,21.778,21.778,0,0,1-1.1-1.9c-.128-.249-.25-.5-.37-.755q-.444-.953-.8-1.953a18.9,18.9,0,0,0-2.707,1.151q-.391.2-.771.424-.5.293-.988.614-.4.264-.782.549A19.338,19.338,0,0,0,694.013,500.817Z" transform="translate(-691.354 -483.485)" fill="#fff"/>
            <path id="Path_5" data-name="Path 5" d="M691.368,488.953q0,1.318.11,2.612.068.824.18,1.633.116.854.282,1.69.134.7.3,1.382.219.908.494,1.8.625-.567,1.291-1.083.587-.455,1.2-.872c-.019-.065-.035-.131-.051-.2a27.253,27.253,0,0,1-.579-2.884l-.006-.035a27.9,27.9,0,0,1-.278-3.185,27.407,27.407,0,0,1,2.647-1.249l.249-.1.033-.013a27.637,27.637,0,0,1,2.787-.935c.064-.019.129-.036.194-.054l.4-.1q1.121-.285,2.278-.479c.11-.018.219-.036.329-.052q.525-.082,1.054-.142v8.875l.008.02-.008,0v14.762q-.834-.7-1.613-1.464c-.017-.015-.033-.031-.049-.047l-.144.169q-.4.471-.825.925-.5.543-1.03,1.058c.087.085.175.171.263.255.344.331.7.653,1.057.966q.638.558,1.309,1.082.507.394,1.031.769c.1.071.2.142.3.212q1.083.756,2.232,1.418h0a1.462,1.462,0,0,0,.4.148v-2.876a1.458,1.458,0,0,0-.4.147h0c.136-.077.27-.157.4-.238v-29.3l-.25,0q-1.021.018-2.024.1c-.221.018-.442.038-.662.061-.155.015-.308.033-.461.051q-.982.118-1.944.3c-.408.074-.813.159-1.215.249l-.041.01q-.884.2-1.746.454-.686.2-1.36.429-.808.276-1.6.6-.765.309-1.508.661c-.13.06-.258.122-.387.185q-1,.484-1.952,1.039v0A1.472,1.472,0,0,0,691.368,488.953Z" transform="translate(-691.368 -483.557)" fill="#fff"/>
          </g>
        </g>
      </g>
    </g>
    <g id="Group_7" data-name="Group 7" transform="translate(676.961 481.009)">
      <path id="Path_6" data-name="Path 6" d="M685.792,481.407V517.66h-8.831V481.407Z" transform="translate(-676.961 -480.994)" fill="#fff"/>
      <path id="Path_7" data-name="Path 7" d="M749.727,517.66l-7.539-13.685H740.07V517.66h-8.831V481.407H746.06a16.311,16.311,0,0,1,7.307,1.5,10.329,10.329,0,0,1,4.519,4.105,11.465,11.465,0,0,1,1.5,5.81,10.783,10.783,0,0,1-2.041,6.455,10.969,10.969,0,0,1-6.016,4.029l8.366,14.357Zm-9.657-19.934h5.475a5.011,5.011,0,0,0,3.64-1.188,4.485,4.485,0,0,0,1.214-3.357,4.346,4.346,0,0,0-1.214-3.253,5.014,5.014,0,0,0-3.64-1.188H740.07Z" transform="translate(-676.654 -480.994)" fill="#fff"/>
      <path id="Path_8" data-name="Path 8" d="M765.555,489.9a16.613,16.613,0,0,1,6.48-6.559A18.824,18.824,0,0,1,781.46,481a18.037,18.037,0,0,1,11.051,3.408,16.372,16.372,0,0,1,6.146,9.3h-9.709a7.85,7.85,0,0,0-3.072-3.459,8.648,8.648,0,0,0-4.518-1.188,8.437,8.437,0,0,0-6.611,2.84,12.654,12.654,0,0,0,0,15.183,8.434,8.434,0,0,0,6.611,2.84,8.638,8.638,0,0,0,4.518-1.188,7.841,7.841,0,0,0,3.072-3.46h9.709a16.248,16.248,0,0,1-6.146,9.27,18.125,18.125,0,0,1-11.051,3.382,18.813,18.813,0,0,1-9.425-2.349,16.644,16.644,0,0,1-6.48-6.533,20.852,20.852,0,0,1,0-19.134Z" transform="translate(-676.473 -480.996)" fill="#fff"/>
    </g>
    <g id="Group_8" data-name="Group 8" transform="translate(807.975 492.65)">
      <path id="Path_9" data-name="Path 9" d="M828.889,493.065v22.708H827.4v-19.6l-8.727,19.6h-1.191l-8.759-19.6v19.6h-1.486V493.065h1.586l9.255,20.758,9.255-20.758Z" transform="translate(-807.239 -492.569)" fill="#fff"/>
      <path id="Path_10" data-name="Path 10" d="M847.354,509.823H836.349l-2.214,5.949h-1.621l8.529-22.674h1.652l8.495,22.674h-1.62Zm-.463-1.256-5.024-13.519-5.056,13.519Z" transform="translate(-807.096 -492.569)" fill="#fff"/>
      <path id="Path_11" data-name="Path 11" d="M867.634,492.572v1.256h-6.611v21.947h-1.486V493.828h-6.612v-1.256Z" transform="translate(-806.981 -492.572)" fill="#fff"/>
      <path id="Path_12" data-name="Path 12" d="M883.6,515.776l-5.949-9.884h-5.091v9.884h-1.487v-23.2h6.38q3.866,0,5.8,1.818a6.307,6.307,0,0,1,1.934,4.826,6.494,6.494,0,0,1-1.5,4.412,6.77,6.77,0,0,1-4.38,2.132l6.081,10.015Zm-11.04-11.14h4.958a6.332,6.332,0,0,0,4.595-1.486,5.259,5.259,0,0,0,1.52-3.933q0-5.323-6.18-5.322h-4.892Z" transform="translate(-806.878 -492.572)" fill="#fff"/>
      <path id="Path_13" data-name="Path 13" d="M890.993,492.572v23.2h-1.487v-23.2Z" transform="translate(-806.774 -492.572)" fill="#fff"/>
      <path id="Path_14" data-name="Path 14" d="M903.491,504.173l6.975,11.6H908.78l-6.248-10.412-5.983,10.412H894.9l6.875-11.7-6.908-11.5h1.685l6.181,10.313,6.082-10.313H910.5Z" transform="translate(-806.744 -492.572)" fill="#fff"/>
    </g>
  </g>
</svg>
